<svg width="21" height="21" viewBox="0 0 21 21" fill="none" xmlns="http://www.w3.org/2000/svg">
<path d="M9.00036 15.5C9.00036 14.2111 9.37553 13.0098 10.0226 11.9993L2.25278 11.9999C1.01076 11.9999 0.00390625 13.0068 0.00390625 14.2488V15.1688C0.00390625 15.7409 0.182312 16.2987 0.514274 16.7646C2.05643 18.9289 4.5794 20.0011 8.00036 20.0011C8.93168 20.0011 9.79657 19.9216 10.5921 19.7615C9.60059 18.6205 9.00036 17.1303 9.00036 15.5ZM13.0004 5.00464C13.0004 2.24321 10.7618 0.00463867 8.00036 0.00463867C5.23894 0.00463867 3.00036 2.24321 3.00036 5.00464C3.00036 7.76606 5.23894 10.0046 8.00036 10.0046C10.7618 10.0046 13.0004 7.76606 13.0004 5.00464ZM21.0004 15.5C21.0004 12.4624 18.5379 10 15.5004 10C12.4628 10 10.0004 12.4624 10.0004 15.5C10.0004 18.5376 12.4628 21 15.5004 21C18.5379 21 21.0004 18.5376 21.0004 15.5ZM15.4105 12.008L15.5004 12L15.5902 12.008C15.7943 12.0451 15.9553 12.206 15.9923 12.4101L16.0004 12.5L15.9994 15H18.5043L18.5942 15.0081C18.7982 15.0451 18.9592 15.206 18.9962 15.4101L19.0043 15.5L18.9962 15.5899C18.9592 15.794 18.7982 15.9549 18.5942 15.9919L18.5043 16H15.9994L16.0004 18.5L15.9923 18.5899C15.9553 18.794 15.7943 18.9549 15.5902 18.9919L15.5004 19L15.4105 18.9919C15.2064 18.9549 15.0455 18.794 15.0084 18.5899L15.0004 18.5L14.9994 16H12.5043L12.4144 15.9919C12.2103 15.9549 12.0494 15.794 12.0123 15.5899L12.0043 15.5L12.0123 15.4101C12.0494 15.206 12.2103 15.0451 12.4144 15.0081L12.5043 15H14.9994L15.0004 12.5L15.0084 12.4101C15.0455 12.206 15.2064 12.0451 15.4105 12.008Z" fill="#272727"/>
</svg>
