<svg viewBox="0 0 24 24" fill="none" xmlns="http://www.w3.org/2000/svg">
<path d="M5.84328 4.56789C9.24369 1.16748 14.7568 1.16748 18.1573 4.56789C21.5577 7.9683 21.5577 13.4815 18.1573 16.8819L16.9703 18.0558C16.0954 18.9144 14.9603 20.0184 13.5644 21.3679C12.6922 22.2113 11.3084 22.2112 10.4362 21.3677L6.94515 17.9718C6.50638 17.541 6.13912 17.1777 5.84328 16.8819C2.44287 13.4815 2.44287 7.9683 5.84328 4.56789ZM17.0966 5.62855C14.282 2.81392 9.71856 2.81392 6.90394 5.62855C4.08931 8.44317 4.08931 13.0066 6.90394 15.8212L8.39101 17.2887C9.20992 18.0901 10.2394 19.0905 11.4791 20.2895C11.7698 20.5706 12.231 20.5707 12.5218 20.2896L15.9167 16.9881C16.3856 16.5278 16.779 16.1388 17.0966 15.8212C19.9112 13.0066 19.9112 8.44317 17.0966 5.62855ZM12.0003 7.99854C13.658 7.99854 15.0018 9.34238 15.0018 11.0001C15.0018 12.6578 13.658 14.0016 12.0003 14.0016C10.3426 14.0016 8.99871 12.6578 8.99871 11.0001C8.99871 9.34238 10.3426 7.99854 12.0003 7.99854ZM12.0003 9.49854C11.171 9.49854 10.4987 10.1708 10.4987 11.0001C10.4987 11.8294 11.171 12.5016 12.0003 12.5016C12.8295 12.5016 13.5018 11.8294 13.5018 11.0001C13.5018 10.1708 12.8295 9.49854 12.0003 9.49854Z" fill="#212121"/>
</svg>
