<svg viewBox="0 0 737 709" fill="none" xmlns="http://www.w3.org/2000/svg">
<g clip-path="url(#clip0_264_91)">
<path d="M490.674 35.3559C513.08 41.3594 526.376 64.3897 520.372 86.7951C514.369 109.201 491.339 122.497 468.933 116.494C461.465 114.492 453.788 118.925 451.787 126.393L450.808 130.044C498.045 155.932 531.83 203.353 538.893 259.146C573.519 262.747 607.938 272.609 633.069 287.118C701.943 326.883 725.541 414.952 685.777 483.826C654.189 538.536 592.131 564.675 533.412 553.182C512.564 624.715 446.522 676.97 368.264 676.97C290.18 676.97 224.259 624.947 203.256 553.658C144.661 564.946 82.8232 538.802 51.311 484.221C11.5465 415.347 35.1446 327.278 104.019 287.513C129.007 273.086 163.171 263.259 197.577 259.606C204.513 203.614 238.353 156.003 285.719 130.044L284.741 126.393C282.74 118.924 275.063 114.492 267.594 116.493C245.189 122.497 222.159 109.201 216.155 86.795C210.151 64.3893 223.448 41.3592 245.854 35.3556C298.133 21.3474 351.87 52.3724 365.879 104.652L367.037 108.974C367.445 108.971 367.855 108.97 368.264 108.97C368.673 108.97 369.082 108.971 369.491 108.974L370.649 104.652C384.657 52.3727 438.394 21.3476 490.674 35.3559ZM490.674 35.3559L485.498 54.6744L490.674 35.3559Z" fill="#FDFDFD" stroke="#FDFDFD" stroke-width="64"/>
<path fill-rule="evenodd" clip-rule="evenodd" d="M489.463 78.5131C490.892 73.1784 487.726 67.6951 482.392 66.2656C447.183 56.8315 410.993 77.7259 401.559 112.935L387.065 167.027C385.635 172.361 388.801 177.845 394.136 179.274C399.47 180.703 404.954 177.538 406.383 172.203L420.877 118.111C427.452 93.5716 452.676 79.0088 477.215 85.5842C482.55 87.0136 488.033 83.8478 489.463 78.5131Z" fill="#575757"/>
<path fill-rule="evenodd" clip-rule="evenodd" d="M247.065 78.5127C245.635 73.1781 248.801 67.6947 254.136 66.2653C289.345 56.8311 325.535 77.7256 334.969 112.934L349.463 167.026C350.892 172.361 347.726 177.844 342.392 179.274C337.057 180.703 331.574 177.537 330.144 172.203L315.65 118.111C309.075 93.5713 283.852 79.0085 259.312 85.5838C253.977 87.0132 248.494 83.8474 247.065 78.5127Z" fill="#575757"/>
<rect x="228.264" y="140.97" width="280" height="504" rx="140" fill="#FFC72D"/>
<path d="M498.918 555.37C478.684 607.786 427.817 644.97 368.264 644.97C308.712 644.97 257.844 607.786 237.61 555.37H498.918Z" fill="#575757"/>
<rect width="280" height="89.6" transform="matrix(1 0 0 -1 228.264 465.77)" fill="#575757"/>
<path d="M415.577 327.826C446.505 274.257 563.5 283.903 617.069 314.831C670.638 345.759 688.992 414.257 658.064 467.826C627.136 521.395 558.638 539.749 505.069 508.821C451.5 477.893 384.649 381.395 415.577 327.826Z" fill="#7EAEF4"/>
<path d="M321.511 328.221C352.439 381.79 285.587 478.288 232.019 509.216C178.45 540.144 109.952 521.79 79.0239 468.221C48.0959 414.652 66.4499 346.154 120.019 315.226C173.587 284.298 290.583 274.652 321.511 328.221Z" fill="#7EAEF4"/>
</g>
<defs>
<clipPath id="clip0_264_91">
<rect width="737" height="709" fill="white"/>
</clipPath>
</defs>
</svg>
