<svg viewBox="0 0 2379 430" fill="none" xmlns="http://www.w3.org/2000/svg">
<path d="M763.444 115.911H716.796V212.217H611.265V115.911H565V345.592H611.265V250.051H716.796V345.592H763.444V115.911Z" fill="black"/>
<path d="M964.759 265.72C964.759 214.51 926.905 180.879 881.022 180.879C834.757 180.879 796.903 214.51 796.903 265.72C796.903 316.548 834.757 349.032 881.022 349.032C926.905 349.032 964.759 316.548 964.759 265.72ZM881.022 312.726C858.081 312.726 842.022 294.382 842.022 264.955C842.022 236.293 858.081 217.185 881.022 217.185C903.199 217.185 919.64 236.293 919.64 264.955C919.64 294.382 903.199 312.726 881.022 312.726Z" fill="black"/>
<path d="M1043.16 253.49C1043.16 237.44 1054.63 220.624 1075.66 220.624C1096.31 220.624 1108.16 236.293 1108.16 255.783V345.21H1154.04V251.962C1154.04 208.777 1128.43 180.497 1087.13 180.497C1061.51 180.497 1047.37 189.287 1035.13 207.248H1032.45L1025.95 184.701H997.277V345.21H1043.16V253.49Z" fill="black"/>
<path d="M1314.88 300.115C1314.88 300.115 1298.82 313.49 1273.59 313.49C1247.97 313.49 1231.53 300.879 1228.85 273.363H1338.59C1338.59 273.363 1338.97 265.338 1338.97 260.752C1338.97 212.599 1311.06 180.879 1264.03 180.879C1216.62 180.879 1184.5 216.803 1184.5 264.955C1184.5 313.49 1216.62 349.796 1270.53 349.796C1311.44 349.796 1330.94 330.306 1330.94 330.306L1314.88 300.115ZM1262.88 215.274C1281.62 215.274 1292.32 226.739 1294.23 246.229H1230C1233.82 225.21 1246.06 215.274 1262.88 215.274Z" fill="black"/>
<path d="M1479.28 184.701V278.713C1478.13 295.529 1465.9 310.433 1444.1 310.433C1423.46 310.433 1413.13 294.764 1413.13 274.127V184.701H1367.25V277.567C1367.25 321.134 1392.1 349.032 1434.16 349.032C1456.34 349.032 1471.63 339.096 1479.28 330.306V337.949C1479.28 363.554 1466.66 378.076 1441.43 378.076C1419.25 378.076 1405.49 366.994 1399.75 360.879L1377.96 389.159C1387.52 399.86 1408.93 414 1442.57 414C1496.87 414 1523.63 381.134 1523.63 336.42V184.701H1479.28Z" fill="black"/>
<path d="M1640.16 349.032C1674.19 349.032 1690.24 334.127 1690.24 334.127L1678.77 301.643C1678.77 301.643 1663.86 311.197 1644.36 311.197C1619.89 311.197 1601.92 294 1601.92 264.955C1601.92 236.293 1619.89 218.713 1644.36 218.713C1663.86 218.713 1678.77 228.268 1678.77 228.268L1690.63 195.401C1690.63 195.401 1674.57 180.879 1640.16 180.879C1589.3 180.879 1555.65 216.42 1555.65 264.955C1555.65 313.49 1589.3 349.032 1640.16 349.032Z" fill="black"/>
<path d="M1874.35 265.72C1874.35 214.51 1836.5 180.879 1790.62 180.879C1744.35 180.879 1706.5 214.51 1706.5 265.72C1706.5 316.548 1744.35 349.032 1790.62 349.032C1836.5 349.032 1874.35 316.548 1874.35 265.72ZM1790.62 312.726C1767.67 312.726 1751.62 294.382 1751.62 264.955C1751.62 236.293 1767.67 217.185 1790.62 217.185C1812.79 217.185 1829.23 236.293 1829.23 264.955C1829.23 294.382 1812.79 312.726 1790.62 312.726Z" fill="black"/>
<path d="M2063.26 253.108C2063.26 236.293 2073.96 220.624 2095.76 220.624C2116.4 220.624 2127.49 236.293 2127.49 255.783V345.21H2173.37V251.962C2173.37 208.777 2148.52 180.497 2107.23 180.497C2080.46 180.497 2065.17 191.962 2054.84 208.777H2052.55C2041.46 191.197 2021.96 180.879 1996.34 180.879C1971.11 180.879 1955.43 190.433 1944.72 207.248H1942.05L1935.55 184.701H1906.87V345.21H1952.75V251.197C1953.52 235.147 1964.61 220.624 1985.25 220.624C2005.9 220.624 2017.37 235.147 2017.37 253.873V345.21H2063.26V253.108Z" fill="black"/>
<path d="M2212.67 345.21H2243.65L2250.15 321.898H2252.06C2252.06 321.898 2264.67 349.032 2304.44 349.032C2346.88 349.032 2379 316.548 2379 265.338C2379 215.274 2347.65 180.879 2306.35 180.879C2270.41 180.879 2260.47 202.662 2260.47 202.662H2258.56V114H2212.67V345.21ZM2256.26 264.573C2256.26 236.293 2272.32 218.713 2294.88 218.713C2317.06 218.713 2332.73 237.44 2332.73 264.573C2332.73 291.707 2317.06 311.197 2294.88 311.197C2272.32 311.197 2256.26 293.236 2256.26 264.573Z" fill="black"/>
<path fill-rule="evenodd" clip-rule="evenodd" d="M307.33 25.941C308.76 20.6063 305.594 15.123 300.259 13.6935C273.586 6.54646 246.169 22.3756 239.022 49.0489L228.669 87.6859C227.24 93.0206 230.406 98.5039 235.74 99.9334C241.075 101.363 246.558 98.197 247.988 92.8623L258.341 54.2253C262.629 38.2213 279.079 28.7238 295.083 33.0121C300.418 34.4415 305.901 31.2757 307.33 25.941Z" fill="#575757"/>
<path fill-rule="evenodd" clip-rule="evenodd" d="M128.669 25.9408C127.24 20.6061 130.406 15.1227 135.74 13.6933C162.414 6.54621 189.831 22.3753 196.978 49.0486L207.33 87.6857C208.76 93.0203 205.594 98.5037 200.259 99.9331C194.925 101.363 189.441 98.1967 188.012 92.8621L177.659 54.225C173.371 38.221 156.921 28.7236 140.917 33.0118C135.582 34.4412 130.099 31.2754 128.669 25.9408Z" fill="#575757"/>
<mask id="mask0_240_299" style="mask-type:alpha" maskUnits="userSpaceOnUse" x="118" y="69" width="201" height="361">
<rect x="118" y="69.8135" width="200" height="360" rx="100" fill="#FFDC61"/>
</mask>
<g mask="url(#mask0_240_299)">
<rect x="118" y="69.8135" width="200" height="360" fill="url(#paint0_linear_240_299)"/>
<rect width="200" height="64" transform="matrix(1 0 0 -1 118 429.813)" fill="#575757"/>
<rect width="200" height="64" transform="matrix(1 0 0 -1 118 301.813)" fill="#575757"/>
</g>
<path d="M251.795 203.282C273.886 165.019 357.455 171.909 395.718 194C433.981 216.091 447.091 265.019 425 303.282C402.909 341.545 353.981 354.655 315.718 332.564C277.455 310.473 229.704 241.545 251.795 203.282Z" fill="url(#paint1_linear_240_299)"/>
<path d="M184.605 203.564C206.696 241.828 158.945 310.755 120.682 332.846C82.4187 354.938 33.4914 341.828 11.4 303.564C-10.6914 265.301 2.41865 216.374 40.6821 194.282C78.9455 172.191 162.514 165.301 184.605 203.564Z" fill="url(#paint2_linear_240_299)"/>
<defs>
<linearGradient id="paint0_linear_240_299" x1="218" y1="69.8135" x2="218" y2="429.813" gradientUnits="userSpaceOnUse">
<stop stop-color="#FFD027"/>
<stop offset="1" stop-color="#FF9D42"/>
</linearGradient>
<linearGradient id="paint1_linear_240_299" x1="327" y1="345.5" x2="442" y2="230.5" gradientUnits="userSpaceOnUse">
<stop stop-color="#86B5F9"/>
<stop offset="1" stop-color="#679BE4"/>
</linearGradient>
<linearGradient id="paint2_linear_240_299" x1="182" y1="176" x2="7.72605" y2="333.921" gradientUnits="userSpaceOnUse">
<stop stop-color="#679BE4"/>
<stop offset="1" stop-color="#86B5F9"/>
</linearGradient>
</defs>
</svg>
